<?xml version="1.0" encoding="utf-8"?>
<!-- Generator: Adobe Illustrator 25.0.1, SVG Export Plug-In . SVG Version: 6.00 Build 0)  -->
<svg version="1.1" id="Layer_1" xmlns="http://www.w3.org/2000/svg" xmlns:xlink="http://www.w3.org/1999/xlink" x="0px" y="0px"
	 viewBox="0 0 114 114" style="enable-background:new 0 0 114 114;" xml:space="preserve">
<style type="text/css">
	.st0{fill:#FFFFFF;}
	.st1{fill:#111517;}
</style>
<circle class="st0" cx="57" cy="57" r="56.5"/>
<g>
	<path class="st1" d="M58.4,36.1c0,2.5-0.9,4.9-2.5,4.9s-2.2-0.8-2.2-1.6c0-1.7,1.3-2,1.3-4.9c0-2.1-1-3.9-2.6-3.9
		c-2,0-3.7,1.6-3.7,4.9c0,6.1,4.3,13.1,4.3,27.4c0,14.5-9.4,29-25.5,29c-12.1,0-17.2-10.3-17.2-20.8c0-19.4,12.9-26.7,19-26.7
		c6.9,0,10.6,4.8,10.6,12.2c0,9.6-6.7,22.7-15.3,22.7c-0.4,0-0.9-0.1-1.3-0.3c-0.3-0.1-0.5-0.4-0.5-0.7c0-0.7,0.7-1,1.3-1.2
		c7.2-3.6,10.8-14.8,10.8-22c0-6.7-2.2-8.5-4.7-8.5c-8.1,0-17.5,9.2-17.5,25.6c0,8.6,4.9,18.4,14.3,18.4c13.9,0,20.8-13.6,20.8-28.1
		c0-9-3.3-18.6-3.3-24.7c0-4.7,2.8-8.5,7.4-8.5C56.7,29.2,58.4,32.8,58.4,36.1L58.4,36.1z"/>
	<path class="st1" d="M73.7,90.1c9.8,0,17.5-14.8,17.5-21.6c0-2.4-0.5-6-2.9-6c-6.1,0-8.2,6.8-8.2,9.7c0,0.8,0.3,3.7-1.9,3.7
		c-1.7,0-2.2-1.7-2.2-3.4c0-4.6,4.2-11.5,11-11.5c4.2,0,5.5,3.1,5.5,7.3c0,13.6-11.8,23.2-18.6,23.2c-9.3,0-13.9-7.7-13.9-16.5
		c0-11.8,8.5-23.5,9.2-24.7c0.2-0.4,0.3-0.7,0.3-0.9c0-0.4-0.2-0.7-0.7-1c-2.1-1.3-7.5-5.9-7.5-12c0-10.8,6.5-14.2,9.3-14.2
		c1.3,0,3.1,0.4,3.1,1.6c0,0.8-1.3,1.6-2,1.9c-3.9,1.6-6.4,7.5-6.4,11.8c0,6.2,4.9,9.4,5.6,9.4c0.3,0,0.5-0.1,0.8-0.4
		c6-5.5,16.6-16.1,27.4-16.1c3.1,0,4.4,1.9,4.4,5c0,9-13.2,15.9-25,15.9c-1,0-2.1,0-3.1-0.1c-0.2,0-0.4,0-0.6,0
		c-0.7,0-1.1,0.2-1.6,0.8c-5.7,8.1-9.5,17.7-9.5,24.7C64,83.5,67.2,90.1,73.7,90.1L73.7,90.1z M79.5,49.7c9.7,0,21.6-7.8,22-13.5
		c0-0.1,0.1-0.3,0.1-0.4c0-1.8-0.9-2.4-2.5-2.4c-8.1,0-22.9,13.6-22.9,15.1c0,1.3,1.5,1,2.3,1.2H79.5z"/>
</g>
</svg>
