<svg enable-background="new 0 0 1826.9 538.5" viewBox="0 0 1826.9 538.5" xmlns="http://www.w3.org/2000/svg"><g fill="#fff"><path d="m359.5 124.8c0 18.7-6.6 35.8-18.7 35.8s-16-6.1-16-12.1c0-12.7 9.9-14.9 9.9-36.3 0-15.4-7.1-28.6-19.2-28.6-14.9 0-27 12.1-27 36.3 0 45.1 31.9 96.3 31.9 200.8 0 106.7-68.8 212.9-187 212.9-88.6 0-126.5-75.4-126.5-152.4 0-142.5 94.6-195.8 139.7-195.8 50.6 0 77.6 35.2 77.6 89.7 0 70.4-49.5 166.7-112.2 166.7-3.3 0-6.6-1.1-9.9-2.2-2.2-.6-3.9-2.8-3.9-5 0-5 5.5-7.1 9.4-8.8 52.8-26.4 79.2-108.4 79.2-161.7 0-49-16-62.2-34.7-62.2-59.4 0-128.7 67.7-128.7 187.6 0 63.2 36.3 134.8 105.1 134.8 102.3 0 152.4-100.1 152.4-206.3 0-66-24.2-136.4-24.2-181.5 0-34.7 20.4-62.2 54.5-62.2 35.6-.1 48.3 26.3 48.3 50.5z"/><path d="m379.8 210c-2.2 0-4.4-1.1-5-2.8-1.1-1.6-.5-3.9.5-5.5.6-1.1 2.8-1.6 4.4-1.6l89.7-3.3c6.6-.5 13.2-.5 19.2-.5 2.8 0 5 1.1 7.1 2.2 1.7 1.1 2.8 3.3 2.2 5.5 0 1.6-2.2 3.8-3.9 4.4-2.8 1.1-5.5.5-8.2 1.1-6 0-11.5 0-17.6.5-6.6.6-11.5 3.9-14.3 9.9-3.9 8.8-7.2 17-10.5 25.3-6.6 18.2-24.8 61.1-68.8 198-2.2 6.6-5 12.7-7.7 19.2-2.8 6.6-10.4 14.3-20.4 14.3-9.9 0-17.6-5.5-13.2-17.6 19.8-53.9 76.5-213.4 76.5-213.4 14.9-35.2 5-33-5.5-33.6-8-.4-16.3-1-24.5-2.1z"/><path d="m488.1 404.7c-4.4 13.8-4.9 17.1-6.6 31.3 0 3.9.6 7.7 1.1 11 1.6 8.2 3.3 14.3 12.1 16 5.5 1.6 15.4 3.3 14.9 9.3-.5 1.1-2.8 5-5 5-14.9 0-27.5-.5-39.6-8.2-19.8-12.7-17.6-55-12.1-75.9 20.4-74.2 34.1-113.9 70.4-183.2 3.3-7.1 9.9-11.5 17.6-12.1 19.2-2.2 38.5-2.2 58.3-2.2 2.2 0 5 1.6 7.1 3.3 1.1 1.1 2.2 3.9 1.7 5.5 0 1.6-2.2 3.9-3.9 3.9-2.8.5-39.6 3.3-42.4 5-2.8 2.2-4.4 6.6-8.8 16.5-11.5 25.9-31.9 71-52.3 132-4.4 12.1-1.1 16.5 11.6 16.5 5.5-.5 8.2-.5 14.3-.5 8.2 0 11.5 3.3 11.5 7.1 0 3.3-3.3 7.2-11.5 7.7-2.2 0-19.3.5-22 0-8.7-.1-13.6 4.3-16.4 12z"/><path d="m622.3 408c-10.5 1.7-17.1 8.2-19.8 18.2-3.9 14.3-8.2 28-11.5 42.4-2.2 9.9-8.2 15.4-19.2 15.4-14.9-.5-20.4-19.2-16.5-33.5 13.8-46.2 71.5-218.4 78.7-236.5 5.5-13.8 8.3-21.5 20.9-22.6 15.4-1.6 30.2-3.3 45.7-.5 42.4 7.1 61.1 34.1 53.4 88-9 62-76.7 119.8-131.7 129.1zm97.9-186.4c-4.4-9.4-13.2-15.4-22.5-16-6.6-.6-16 1.1-19.3 7.7-3.3 6-55.6 148.5-58.3 166.1 56.1 0 118.8-116 100.1-157.8z"/><path d="m813.2 375.6c10.4.6 20.9.6 31.4.6 8.8-.6 14.3-.6 18.1-2.8 5-2.8 7.7-7.7 11-17.6 22-60 53.4-135.3 58.9-148 1.1-1.6 2.2-3.8 3.3-5.5 3.8-4.9 9.3-7.1 14.3-6.6 16.5 0 23.1 20.4 16 38-1.7 3.8-86.9 217.8-91.9 231.6-3.3 8.8-9.9 13.2-19.2 12.1-8.2-.5-13.8-6-14.9-13.8-1.7-17 12.1-42.3 15.9-62.1.6-3.3 0-6.6-2.2-8.3-1.1-1.1-3.3-2.2-6.6-2.2-14.9 0-29.2 0-44 .5-4.9 0-8.8 1.6-12.1 3.9-2.8 2.8-5.5 6-7.1 10.4-4.9 12.1-16 38.5-20.9 50.6-5.5 13.8-17.6 20.9-24.8 20.9-10.5 0-20.9-13.8-12.1-31.9 9.9-25.9 89.7-237.6 89.7-237.6 3.3-7.7 12.1-12.1 19.8-12.1 19.3 0 17.1 27.5 12.7 39.6-2.2 5.5-41.3 113.9-44.6 126-1.6 4.4-3.9 11-1.1 13.2 2.1 2.2 6.5 1.1 10.4 1.1z"/><path d="m1176.7 501.5c72.1 0 128.2-108.9 128.2-158.4 0-17.6-3.8-44-21.5-44-45.1 0-60 50-60 71.5 0 6 2.2 26.9-13.8 26.9-12.6 0-16-12.7-16-25.3 0-33.5 30.8-84.7 80.9-84.7 30.8 0 40.7 23.1 40.7 53.9 0 100.1-86.4 170-136.4 170-68.2 0-101.8-56.6-101.8-121 0-86.3 62.2-172.7 67.7-181.5 1.7-2.8 2.2-4.9 2.2-6.6 0-2.8-1.7-4.9-5.5-7.1-15.4-9.9-55-43.5-55-88 0-79.2 47.8-104 68.2-104 9.3 0 23.1 2.8 23.1 11.6 0 6-9.3 11.5-14.8 13.8-28.6 11.6-46.8 55-46.8 86.4 0 45.7 36.3 69.3 41.2 69.3 2.2 0 3.8-1.1 6-2.8 44-40.7 122.1-118.3 200.8-118.3 23.1 0 32.5 14.3 32.5 36.9 0 66-96.8 116.6-183.7 116.6-7.7 0-15.4 0-22.5-1.1-1.7 0-3.3 0-4.4 0-4.9 0-8.2 1.6-11.5 6.1-41.8 59.4-69.9 129.8-69.9 181.5 1.2 50.5 24.3 98.3 72.1 98.3zm42.9-296.4c71 0 158.4-57.2 161.2-99 0-1.1.6-2.2.6-3.3 0-13.2-6.6-17.6-18.2-17.6-59.4 0-168.3 99.6-168.3 111.1 0 9.9 11 7.1 17 8.8z"/><path d="m1461.1 449.3c-2.2 7.1-5 13.8-8.8 20.3-4.4 8.2-12.7 11-21.5 8.8-7.2-1.1-14.3-9.9-14.3-18.7-1.1-20.3 15.4-37.4 18.1-55 .6-4.4-1.6-8.2-6-9.3-8.8-2.2-9.3-1.7-47.3 2.8-8.2 1.1-12.1 5.5-16 13.2-9.9 20.9-17 39.6-25.9 61.1-1.1 3.3-3.8 7.2-7.1 6-4.4-1.1-2.8-9.9-1.7-13.8 7.2-18.7 13.2-33 20.9-58.3 1.6-5 0-7.7-5-9.9-6.6-3.3-19.2-5-18.2-18.7.5-5 6-8.2 10.5-5 3.3 2.8 8.8 7.7 14.3 9.3 4.4.6 8.8-.5 12.7-7.7 1.7-2.2 2.2-5 3.3-7.2 56.1-122.1 84.2-173.3 128.2-173.3 20.3 0 31.3 15.4 31.3 40.2.1 19.4-8.1 46.3-67.5 215.2zm-13.8-76.5c1.1-2.2 2.2-4.4 2.8-7.2 16.5-48.4 27.5-78.6 44.6-127.6 3.3-9.4 3.3-27-9.4-27-32.5 0-100.1 150.7-102.3 157.3-3.3 7.7 0 12.1 8.2 12.7 12.7.6 31.9-.5 44.6-1.1 4.9-.5 8.8-2.1 11.5-7.1z"/><path d="m1637.1 216.1-91.9 243.1c-2.8 7.7-7.7 18.7-16 18.7-13.2 0-24.8-6.6-21.5-23.1 4.4-23.1 88-243.7 91.3-250.3s7.7-9.4 17-9.4c12.8.1 26 6.1 21.1 21z"/><path d="m1760.3 322.8c14.9-46.7 23.7-69.8 32.5-97.3 7.2-23.1 11.6-30.3 20.9-30.3 12.7 0 6.6 13.2 1.7 31.4-6.1 22-12.7 43.5-19.8 65.5-24.2 77.6-52.2 154-56.1 167.2-3.9 12.1-9.9 18.2-16.5 18.2-10.5 0-7.2-9.9-1.7-28.6 5-14.3 12.1-32.5 16.5-46.8 1.1-3.8.5-8.8-.5-12.7l-47.9-96.8c-1.1-1.6-2.8-3.9-4.4-3.9-1.7-.5-4.4 1.1-5 2.8-9.4 19.8-58.3 161.2-60 167.8-2.8 8.8-8.2 18.7-17.1 18.7-5.5 0-7.1-6.6-3.8-16 7.2-21.5 77-209.6 88.6-249.7 1.1-4.4 2.8-8.8 4.9-13.2 2.8-4.4 9.4-4.4 11.6.5 1.6 2.8 2.8 5.5 3.3 8.8 12.7 39.6 39.6 90.8 49 115.5 1.6 3.8 2.7 1.1 3.8-1.1z"/></g></svg>