<svg enable-background="new 0 0 114 114" viewBox="0 0 114 114" xmlns="http://www.w3.org/2000/svg"><circle cx="57" cy="57" fill="#fff" r="56.5"/><g fill="#111517"><path d="m58.4 36.1c0 2.5-.9 4.9-2.5 4.9s-2.2-.8-2.2-1.6c0-1.7 1.3-2 1.3-4.9 0-2.1-1-3.9-2.6-3.9-2 0-3.7 1.6-3.7 4.9 0 6.1 4.3 13.1 4.3 27.4 0 14.5-9.4 29-25.5 29-12.1 0-17.2-10.3-17.2-20.8 0-19.4 12.9-26.7 19-26.7 6.9 0 10.6 4.8 10.6 12.2 0 9.6-6.7 22.7-15.3 22.7-.4 0-.9-.1-1.3-.3-.3-.1-.5-.4-.5-.7 0-.7.7-1 1.3-1.2 7.2-3.6 10.8-14.8 10.8-22 0-6.7-2.2-8.5-4.7-8.5-8.1 0-17.5 9.2-17.5 25.6 0 8.6 4.9 18.4 14.3 18.4 13.9 0 20.8-13.6 20.8-28.1 0-9-3.3-18.6-3.3-24.7 0-4.7 2.8-8.5 7.4-8.5 4.8-.1 6.5 3.5 6.5 6.8z"/><path d="m73.7 90.1c9.8 0 17.5-14.8 17.5-21.6 0-2.4-.5-6-2.9-6-6.1 0-8.2 6.8-8.2 9.7 0 .8.3 3.7-1.9 3.7-1.7 0-2.2-1.7-2.2-3.4 0-4.6 4.2-11.5 11-11.5 4.2 0 5.5 3.1 5.5 7.3 0 13.6-11.8 23.2-18.6 23.2-9.3 0-13.9-7.7-13.9-16.5 0-11.8 8.5-23.5 9.2-24.7.2-.4.3-.7.3-.9 0-.4-.2-.7-.7-1-2.1-1.3-7.5-5.9-7.5-12 0-10.8 6.5-14.2 9.3-14.2 1.3 0 3.1.4 3.1 1.6 0 .8-1.3 1.6-2 1.9-3.9 1.6-6.4 7.5-6.4 11.8 0 6.2 4.9 9.4 5.6 9.4.3 0 .5-.1.8-.4 6-5.5 16.6-16.1 27.4-16.1 3.1 0 4.4 1.9 4.4 5 0 9-13.2 15.9-25 15.9-1 0-2.1 0-3.1-.1-.2 0-.4 0-.6 0-.7 0-1.1.2-1.6.8-5.7 8.1-9.5 17.7-9.5 24.7.3 6.8 3.5 13.4 10 13.4zm5.8-40.4c9.7 0 21.6-7.8 22-13.5 0-.1.1-.3.1-.4 0-1.8-.9-2.4-2.5-2.4-8.1 0-22.9 13.6-22.9 15.1 0 1.3 1.5 1 2.3 1.2z"/></g></svg>